<svg xmlns="http://www.w3.org/2000/svg" version="1.1" xmlns:xlink="http://www.w3.org/1999/xlink" xmlns:svgjs="http://svgjs.dev/svgjs" width="2000" height="510" viewBox="0 0 2000 510"><g transform="matrix(1,0,0,1,-1.2121212121212466,-1.1413932463615026)"><svg viewBox="0 0 396 101" data-background-color="#074100" preserveAspectRatio="xMidYMid meet" height="510" width="2000" xmlns="http://www.w3.org/2000/svg" xmlns:xlink="http://www.w3.org/1999/xlink"><g id="tight-bounds" transform="matrix(1,0,0,1,0.2400000000000091,0.22604062329904195)"><svg viewBox="0 0 395.52 100.54791875340192" height="100.54791875340192" width="395.52"><g><svg viewBox="0 0 524.2075423797858 133.26248326538024" height="100.54791875340192" width="395.52"><g transform="matrix(1,0,0,1,128.6875423797858,12.458619612258794)"><svg viewBox="0 0 395.52 108.34524404086265" height="108.34524404086265" width="395.52"><g id="textblocktransform"><svg viewBox="0 0 395.52 108.34524404086265" height="108.34524404086265" width="395.52" id="textblock"><g><svg viewBox="0 0 395.52 108.34524404086265" height="108.34524404086265" width="395.52"><g transform="matrix(1,0,0,1,0,0)"><svg width="395.52" viewBox="2.5 -35.6 132.14 36.2" height="108.34524404086265" data-palette-color="#ffffff"><path d="M9.4-28.2L9.4-21.3 18.35-21.3 18.35-15.25 9.4-15.25 9.4-6.05 21.35-6.05 21.35 0 2.5 0 2.5-30.8 9.4-35.6 20.55-35.6 20.55-29.5 11.25-29.5 9.4-28.2ZM23.85-15.15L23.85-15.15 23.85-19.85Q23.85-26.1 24.85-27.85 25.85-29.6 29.12-32.6 32.4-35.6 34-35.6L34-35.6Q36.75-35.6 40.3-32.43 43.85-29.25 44.8-25.45L44.8-25.45 39.25-21.6Q38.45-24.3 36.7-26.58 34.95-28.85 34.25-28.85L34.25-28.85Q33-28.85 31.4-26.4L31.4-26.4Q30.75-25.45 30.75-19.85L30.75-19.85 30.75-15.15Q30.75-9.4 31.4-8.6L31.4-8.6Q33-6.15 34.25-6.15L34.25-6.15Q34.95-6.15 36.7-8.13 38.45-10.1 39.25-12.5L39.25-12.5 44.8-8.6Q43.85-5.15 40.3-2.27 36.75 0.6 34 0.6L34 0.6Q32.4 0.6 29.12-2.4 25.85-5.4 24.85-7.15 23.85-8.9 23.85-15.15ZM63.52-2.68Q59.95 0.6 58.15 0.6 56.34 0.6 52.77-2.68 49.2-5.95 48.34-8L48.34-8Q47.8-9.3 47.8-14.55L47.8-14.55 47.8-20.45Q47.8-25.7 48.34-27L48.34-27Q49.2-29.05 52.77-32.33 56.34-35.6 58.15-35.6 59.95-35.6 63.52-32.33 67.09-29.05 67.95-27L67.95-27Q68.5-25.7 68.5-20.45L68.5-20.45 68.5-14.55Q68.5-9.3 67.95-8L67.95-8Q67.09-5.95 63.52-2.68ZM56.47-7.58Q57.45-6.55 58.15-6.55 58.84-6.55 59.82-7.58 60.8-8.6 61.2-9.53 61.59-10.45 61.59-14.55L61.59-14.55 61.59-20.45Q61.59-24.55 61.2-25.48 60.8-26.4 59.82-27.43 58.84-28.45 58.15-28.45 57.45-28.45 56.47-27.43 55.5-26.4 55.09-25.48 54.7-24.55 54.7-20.45L54.7-20.45 54.7-14.55Q54.7-10.45 55.09-9.53 55.5-8.6 56.47-7.58ZM77.39-6L88.74-6 88.74 0 70.49 0 70.49-35 77.39-35 77.39-6ZM106.22-2.68Q102.64 0.6 100.84 0.6 99.04 0.6 95.47-2.68 91.89-5.95 91.04-8L91.04-8Q90.49-9.3 90.49-14.55L90.49-14.55 90.49-20.45Q90.49-25.7 91.04-27L91.04-27Q91.89-29.05 95.47-32.33 99.04-35.6 100.84-35.6 102.64-35.6 106.22-32.33 109.79-29.05 110.64-27L110.64-27Q111.19-25.7 111.19-20.45L111.19-20.45 111.19-14.55Q111.19-9.3 110.64-8L110.64-8Q109.79-5.95 106.22-2.68ZM99.17-7.58Q100.14-6.55 100.84-6.55 101.54-6.55 102.52-7.58 103.49-8.6 103.89-9.53 104.29-10.45 104.29-14.55L104.29-14.55 104.29-20.45Q104.29-24.55 103.89-25.48 103.49-26.4 102.52-27.43 101.54-28.45 100.84-28.45 100.14-28.45 99.17-27.43 98.19-26.4 97.79-25.48 97.39-24.55 97.39-20.45L97.39-20.45 97.39-14.55Q97.39-10.45 97.79-9.53 98.19-8.6 99.17-7.58ZM120.59-19.85L120.59-19.85 120.59-14.55Q120.59-10.45 120.99-9.53 121.39-8.6 122.36-7.58 123.34-6.55 124.09-6.55 124.84-6.55 125.99-7.6 127.14-8.65 127.59-9.5L127.59-9.5Q127.89-10.35 127.94-12L127.94-12 124.49-12 124.49-17.55 134.44-17.55 134.44 0 129.59 0 128.99-3.4Q125.54 0.6 123.89 0.6 122.24 0.6 118.66-2.68 115.09-5.95 114.24-8L114.24-8Q113.69-9.3 113.69-14.55L113.69-14.55 113.69-19.85Q113.69-26.1 114.69-27.85 115.69-29.6 118.96-32.6 122.24-35.6 123.84-35.6L123.84-35.6Q126.59-35.6 130.14-32.4 133.69-29.2 134.64-25.4L134.64-25.4 129.09-21.55Q128.29-24.25 126.54-26.55 124.79-28.85 124.09-28.85L124.09-28.85Q122.84-28.85 121.24-26.4L121.24-26.4Q120.59-25.45 120.59-19.85Z" opacity="1" transform="matrix(1,0,0,1,0,0)" fill="#ffffff" class="wordmark-text-0" data-fill-palette-color="primary" id="text-0"></path></svg></g></svg></g></svg></g></svg></g><g><svg viewBox="0 0 103.10983054759511 133.26248326538024" height="133.26248326538024" width="103.10983054759511"><g><svg xmlns="http://www.w3.org/2000/svg" xmlns:xlink="http://www.w3.org/1999/xlink" version="1.1" x="0" y="0" viewBox="11.452907485383136 0.18319745593316278 77.09324248441663 99.63780254406683" enable-background="new 0 0 100 100" xml:space="preserve" height="133.26248326538024" width="103.10983054759511" class="icon-icon-0" data-fill-palette-color="accent" id="icon-0"><path d="M82.511 27.412c-0.153-0.45-0.335-0.918-0.542-1.396-0.309-1.83-1.747-5.274-1.766-5.313l-0.298-0.659c-0.651-1.429-1.391-3.047-1.525-4.437-0.104-1.073 1.284-6.627 1.951-9.297 1.232-4.926 1.362-5.439-0.14-5.982-0.063-0.023-0.339-0.117-0.695-0.087-0.002 0-0.006-0.001-0.009-0.002-1.432-0.309-2.96 0.686-5.537 2.471-0.451 0.312-1.042 0.721-1.599 1.081 0.194-0.91 0.166-2.092-0.995-3.021-1.473-1.179-3.561 0.025-6.72 1.851-0.885 0.512-2.206 1.277-3.088 1.671-0.698-1.148-1.984-2.393-4.411-1.901-1.373 0.278-2.967 1.482-5.24 3.29-0.594 0.472-1.365 1.083-2.006 1.543-0.01-0.414-0.058-0.866-0.225-1.31-0.799-2.107-2.104-2.776-3.059-2.966-3.087-0.618-6.411 2.896-9.074 5.721-0.167 0.178-0.341 0.361-0.512 0.541-0.771-1.276-1.738-2.592-3.159-2.841-1.37-0.249-7.019 1.107-12.253 5.707-4.985 4.38-10.784 12.835-10.101 28.248 0.189 4.247 2.483 41.865 24.748 55.107 4.921 2.929 10.396 4.39 16.39 4.39 7.176 0 15.095-2.097 23.695-6.287C99.438 82.278 82.694 27.953 82.511 27.412zM74.902 90.58c-14.725 7.176-27.163 7.86-36.969 2.026C17.15 80.245 14.969 44.241 14.789 40.177c-0.458-10.333 2.045-18.458 7.441-24.148 4.628-4.88 9.882-6.251 11.043-6.399 0.393 0.325 1.019 1.403 1.331 1.942 0.274 0.472 0.511 0.881 0.757 1.21 0.526 0.703 1.515 0.868 2.241 0.371 0.604-0.413 1.324-1.176 2.319-2.233 1.294-1.372 4.726-5.016 6.044-4.754 0.19 0.039 0.432 0.387 0.624 0.891 0.027 0.109 0.021 0.439 0.016 0.656-0.017 0.818-0.049 2.342 1.308 3.141 1.58 0.931 3.349-0.477 6.025-2.604 1.178-0.935 3.147-2.5 3.851-2.642 0.6-0.123 0.779-0.16 1.327 1.18 0.203 0.495 0.633 0.86 1.155 0.979 1.377 0.316 3.096-0.622 6.008-2.305 0.714-0.414 1.725-0.997 2.535-1.404-0.262 0.765-0.496 1.825 0.147 2.846 0.317 0.499 0.812 0.84 1.398 0.959 1.408 0.289 2.915-0.695 5.456-2.454 0.459-0.318 1.062-0.735 1.631-1.101-0.099 0.398-0.201 0.809-0.302 1.206-1.284 5.138-2.182 8.893-2.034 10.411 0.077 0.792 0.268 1.578 0.518 2.342-1.675-1.002-3.583-1.524-5.677-1.222-1.18 0.17-2.325 0.668-3.379 1.452-1.541-1.364-3.285-2.314-5.158-2.481-4.594-0.411-10.566-0.412-14.952 1.486-1.987-1.58-4.941-1.796-8.208-0.576-5.852 2.186-9.76 5.959-11.616 11.216-4.686 13.274 5.215 32.351 9.747 40.022-0.164 1.434-0.124 2.876 0.167 4.269 0.791 3.781 4.143 10.188 17.713 10.63 16.722 0.545 22.231-6.685 22.858-11.04 0.339-2.355-0.765-3.736-2.013-4.06-1.087-0.281-4.48-0.328-12.545-0.372-7.308-0.041-19.064-0.107-22.618-0.773 1-3.952 3.772-7.497 6.152-8.631 1.762-0.844 2.623-0.134 3.116 0.473 0.646 0.792 1.375 0.934 1.863 0.939 1.077-0.021 1.734-0.803 2.146-1.342 0.404 0.174 0.913 0.562 1.444 0.966 1.293 0.984 3.066 2.335 5.648 2.366 1.396-0.012 2.551-0.383 3.365-1.188 1.332-1.316 1.442-3.296 1.442-5.379 0-2.181-0.385-4.188-0.757-6.127l-0.197-1.041c-0.765-4.127-1.848-8.546-3.217-13.135-0.281-0.939-0.59-1.899-0.901-2.862-0.438-1.356-0.891-2.758-1.247-4.074-0.231-0.85-0.744-3.052-1.118-4.66-0.191-0.825-0.347-1.49-0.408-1.738-0.221-0.879-1.112-1.414-1.991-1.193-0.88 0.22-1.414 1.112-1.193 1.991 0.06 0.241 0.21 0.885 0.396 1.684 0.381 1.633 0.9 3.869 1.147 4.776 0.377 1.39 0.841 2.83 1.29 4.222 0.304 0.939 0.606 1.877 0.879 2.794 1.338 4.477 2.395 8.78 3.136 12.792l0.201 1.062c0.358 1.872 0.699 3.64 0.699 5.508 0 0.901 0 2.581-0.468 3.044-0.209 0.205-0.678 0.239-1.019 0.239-1.496-0.018-2.566-0.832-3.7-1.694-1.138-0.868-2.422-1.863-4.105-1.72-0.722 0.055-1.21 0.481-1.562 0.894-1.704-1.469-3.945-1.686-6.301-0.563-2.839 1.354-5.578 4.587-7.119 8.388-4.623-8.42-11.58-23.769-7.835-34.374 1.539-4.357 4.702-7.378 9.669-9.233 0.633-0.237 2.413-0.813 3.896-0.457-2.427 2.45-5.893 8.44-5.435 12.451 0.201 1.769 1.147 3.108 2.663 3.77 2.727 1.193 6.862 0.501 8.436-2.391 0.894-1.645 1.177-4.261 0.842-7.779-0.061-0.642-0.354-3.16-1.345-5.357 3.003-1.086 7.366-1.424 12.663-0.952 0.985 0.088 2.072 0.639 3.16 1.577-0.101 0.141-0.199 0.284-0.297 0.43-2.025 3.06-2.879 7.052-2.12 9.932 0.317 1.204 1.155 2.146 2.425 2.726 2.276 1.041 5.57 0.713 7.439-0.207 0.839-0.411 1.736-1.451 1.249-4.067-0.438-2.36-1.95-5.873-4.165-8.749 0.525-0.341 1.066-0.557 1.606-0.634 3.628-0.533 6.886 3.368 8.464 6.87 0.006 0.017 0.014 0.033 0.021 0.05 0.19 0.426 0.356 0.847 0.494 1.253C82.27 36.925 93.027 81.749 74.902 90.58zM66.648 23.53c2.244 3.174 3.165 6.318 3.199 7.445-1.197 0.403-3.087 0.494-4.19-0.011-0.525-0.24-0.593-0.493-0.613-0.576-0.498-1.885 0.133-4.781 1.502-7.002C66.58 23.434 66.615 23.482 66.648 23.53zM46.081 31.805c-0.652 1.199-2.913 1.53-4.238 0.952-0.32-0.14-0.628-0.374-0.715-1.133-0.313-2.747 2.631-7.936 4.467-9.747 0.484 1.192 0.819 2.716 0.944 4.03C46.796 28.601 46.624 30.806 46.081 31.805zM39.57 70.049c3.103 0.547 9.463 0.748 22.979 0.823 4.6 0.025 9.753 0.055 11.355 0.212 0.026 0.468-0.139 1.45-0.95 2.659-1.315 1.952-5.758 6.445-18.579 6.037-8.518-0.276-13.568-3.049-14.608-8.021C39.649 71.195 39.586 70.624 39.57 70.049z" fill="#ffffff" data-fill-palette-color="accent"></path></svg></g></svg></g></svg></g><defs></defs></svg><rect width="395.52" height="100.54791875340192" fill="none" stroke="none" visibility="hidden"></rect></g></svg></g></svg>